<svg width="298" height="17" viewBox="0 0 298 17" fill="none" xmlns="http://www.w3.org/2000/svg">
<path d="M86.5723 4.04688H87.8506L91.1113 12.1611L94.3652 4.04688H95.6504L91.6035 14H90.6055L86.5723 4.04688ZM86.1553 4.04688H87.2832L87.4678 10.1172V14H86.1553V4.04688ZM94.9326 4.04688H96.0605V14H94.748V10.1172L94.9326 4.04688ZM97.8516 10.3838V10.2266C97.8516 9.69336 97.929 9.19889 98.084 8.74316C98.2389 8.28288 98.4622 7.88411 98.7539 7.54688C99.0456 7.20508 99.3988 6.94076 99.8135 6.75391C100.228 6.5625 100.693 6.4668 101.208 6.4668C101.728 6.4668 102.195 6.5625 102.609 6.75391C103.029 6.94076 103.384 7.20508 103.676 7.54688C103.972 7.88411 104.198 8.28288 104.353 8.74316C104.507 9.19889 104.585 9.69336 104.585 10.2266V10.3838C104.585 10.917 104.507 11.4115 104.353 11.8672C104.198 12.3229 103.972 12.7217 103.676 13.0635C103.384 13.4007 103.031 13.665 102.616 13.8564C102.206 14.0433 101.741 14.1367 101.222 14.1367C100.702 14.1367 100.235 14.0433 99.8203 13.8564C99.4056 13.665 99.0501 13.4007 98.7539 13.0635C98.4622 12.7217 98.2389 12.3229 98.084 11.8672C97.929 11.4115 97.8516 10.917 97.8516 10.3838ZM99.1162 10.2266V10.3838C99.1162 10.7529 99.1595 11.1016 99.2461 11.4297C99.3327 11.7533 99.4626 12.0404 99.6357 12.291C99.8135 12.5417 100.035 12.7399 100.299 12.8857C100.563 13.027 100.871 13.0977 101.222 13.0977C101.568 13.0977 101.871 13.027 102.131 12.8857C102.395 12.7399 102.614 12.5417 102.787 12.291C102.96 12.0404 103.09 11.7533 103.177 11.4297C103.268 11.1016 103.313 10.7529 103.313 10.3838V10.2266C103.313 9.86198 103.268 9.5179 103.177 9.19434C103.09 8.86621 102.958 8.57682 102.78 8.32617C102.607 8.07096 102.388 7.87044 102.124 7.72461C101.864 7.57878 101.559 7.50586 101.208 7.50586C100.862 7.50586 100.556 7.57878 100.292 7.72461C100.032 7.87044 99.8135 8.07096 99.6357 8.32617C99.4626 8.57682 99.3327 8.86621 99.2461 9.19434C99.1595 9.5179 99.1162 9.86198 99.1162 10.2266ZM109.131 13.0977C109.432 13.0977 109.71 13.0361 109.965 12.9131C110.22 12.79 110.43 12.6214 110.594 12.4072C110.758 12.1885 110.851 11.9401 110.874 11.6621H112.077C112.054 12.0996 111.906 12.5075 111.633 12.8857C111.364 13.2594 111.011 13.5625 110.573 13.7949C110.136 14.0228 109.655 14.1367 109.131 14.1367C108.575 14.1367 108.09 14.0387 107.675 13.8428C107.265 13.6468 106.923 13.3779 106.649 13.0361C106.381 12.6943 106.178 12.3024 106.041 11.8604C105.909 11.4137 105.843 10.9421 105.843 10.4453V10.1582C105.843 9.66146 105.909 9.19206 106.041 8.75C106.178 8.30339 106.381 7.90918 106.649 7.56738C106.923 7.22559 107.265 6.95671 107.675 6.76074C108.09 6.56478 108.575 6.4668 109.131 6.4668C109.71 6.4668 110.215 6.58529 110.648 6.82227C111.081 7.05469 111.421 7.3737 111.667 7.7793C111.918 8.18034 112.054 8.63607 112.077 9.14648H110.874C110.851 8.84115 110.765 8.56543 110.614 8.31934C110.468 8.07324 110.268 7.87728 110.013 7.73145C109.762 7.58105 109.468 7.50586 109.131 7.50586C108.743 7.50586 108.418 7.58333 108.153 7.73828C107.894 7.88867 107.686 8.09375 107.531 8.35352C107.381 8.60872 107.271 8.89355 107.203 9.20801C107.139 9.5179 107.107 9.83464 107.107 10.1582V10.4453C107.107 10.7689 107.139 11.0879 107.203 11.4023C107.267 11.7168 107.374 12.0016 107.524 12.2568C107.679 12.512 107.887 12.7171 108.146 12.8721C108.411 13.0225 108.739 13.0977 109.131 13.0977ZM114.873 6.60352V14H113.608V6.60352H114.873ZM119.727 6.60352L116.22 10.8418H114.449L114.258 9.73438H115.707L118.188 6.60352H119.727ZM118.366 14L115.646 10.6504L116.459 9.73438L119.973 14H118.366ZM124.546 10.7461H122.119L122.105 9.73438H124.088C124.48 9.73438 124.806 9.69564 125.065 9.61816C125.33 9.54069 125.528 9.42448 125.66 9.26953C125.792 9.11458 125.858 8.92318 125.858 8.69531C125.858 8.51758 125.82 8.36263 125.742 8.23047C125.669 8.09375 125.558 7.9821 125.407 7.89551C125.257 7.80436 125.07 7.73828 124.847 7.69727C124.628 7.65169 124.37 7.62891 124.074 7.62891H122.454V14H121.189V6.60352H124.074C124.544 6.60352 124.965 6.64453 125.339 6.72656C125.717 6.80859 126.038 6.93392 126.303 7.10254C126.572 7.2666 126.777 7.47624 126.918 7.73145C127.059 7.98665 127.13 8.28743 127.13 8.63379C127.13 8.8571 127.084 9.06901 126.993 9.26953C126.902 9.47005 126.768 9.64779 126.59 9.80273C126.412 9.95768 126.193 10.0853 125.934 10.1855C125.674 10.2812 125.375 10.3428 125.038 10.3701L124.546 10.7461ZM124.546 14H121.661L122.29 12.9746H124.546C124.897 12.9746 125.188 12.9313 125.421 12.8447C125.653 12.7536 125.826 12.626 125.94 12.4619C126.059 12.2933 126.118 12.0928 126.118 11.8604C126.118 11.6279 126.059 11.4297 125.94 11.2656C125.826 11.097 125.653 10.9694 125.421 10.8828C125.188 10.7917 124.897 10.7461 124.546 10.7461H122.625L122.639 9.73438H125.038L125.496 10.1172C125.902 10.1491 126.246 10.2493 126.528 10.418C126.811 10.5866 127.025 10.8008 127.171 11.0605C127.317 11.3158 127.39 11.5938 127.39 11.8945C127.39 12.2409 127.324 12.5462 127.191 12.8105C127.064 13.0749 126.877 13.2959 126.631 13.4736C126.385 13.6468 126.086 13.779 125.735 13.8701C125.384 13.9567 124.988 14 124.546 14ZM133.446 12.7354V8.92773C133.446 8.63607 133.387 8.38314 133.269 8.16895C133.155 7.9502 132.981 7.78158 132.749 7.66309C132.517 7.5446 132.229 7.48535 131.888 7.48535C131.569 7.48535 131.288 7.54004 131.047 7.64941C130.81 7.75879 130.623 7.90234 130.486 8.08008C130.354 8.25781 130.288 8.44922 130.288 8.6543H129.023C129.023 8.38997 129.092 8.12793 129.229 7.86816C129.365 7.6084 129.561 7.3737 129.816 7.16406C130.076 6.94987 130.386 6.78125 130.746 6.6582C131.111 6.5306 131.516 6.4668 131.963 6.4668C132.501 6.4668 132.975 6.55794 133.385 6.74023C133.799 6.92253 134.123 7.19824 134.355 7.56738C134.592 7.93197 134.711 8.38997 134.711 8.94141V12.3867C134.711 12.6328 134.731 12.8949 134.772 13.1729C134.818 13.4508 134.884 13.6901 134.971 13.8906V14H133.651C133.588 13.8542 133.537 13.6605 133.501 13.4189C133.465 13.1729 133.446 12.945 133.446 12.7354ZM133.665 9.51562L133.679 10.4043H132.4C132.04 10.4043 131.719 10.4339 131.437 10.4932C131.154 10.5479 130.917 10.6322 130.726 10.7461C130.534 10.86 130.388 11.0036 130.288 11.1768C130.188 11.3454 130.138 11.5436 130.138 11.7715C130.138 12.0039 130.19 12.2158 130.295 12.4072C130.4 12.5986 130.557 12.7513 130.767 12.8652C130.981 12.9746 131.243 13.0293 131.553 13.0293C131.94 13.0293 132.282 12.9473 132.578 12.7832C132.874 12.6191 133.109 12.4186 133.282 12.1816C133.46 11.9447 133.556 11.7145 133.569 11.4912L134.109 12.0996C134.077 12.291 133.991 12.5029 133.85 12.7354C133.708 12.9678 133.519 13.1911 133.282 13.4053C133.05 13.6149 132.772 13.7904 132.448 13.9316C132.129 14.0684 131.769 14.1367 131.368 14.1367C130.867 14.1367 130.427 14.0387 130.049 13.8428C129.675 13.6468 129.383 13.3848 129.174 13.0566C128.969 12.724 128.866 12.3525 128.866 11.9424C128.866 11.5459 128.944 11.1973 129.099 10.8965C129.254 10.5911 129.477 10.3382 129.769 10.1377C130.06 9.93262 130.411 9.77767 130.821 9.67285C131.231 9.56803 131.689 9.51562 132.195 9.51562H133.665ZM137.849 12.4961V13.5146C137.849 13.9294 137.744 14.3669 137.534 14.8271C137.325 15.292 137.031 15.6794 136.652 15.9893L135.935 15.4902C136.08 15.2897 136.203 15.0846 136.304 14.875C136.404 14.6699 136.479 14.4557 136.529 14.2324C136.584 14.0137 136.611 13.7812 136.611 13.5352V12.4961H137.849ZM143.543 4.04688H144.821L148.082 12.1611L151.336 4.04688H152.621L148.574 14H147.576L143.543 4.04688ZM143.126 4.04688H144.254L144.438 10.1172V14H143.126V4.04688ZM151.903 4.04688H153.031V14H151.719V10.1172L151.903 4.04688ZM154.822 10.3838V10.2266C154.822 9.69336 154.9 9.19889 155.055 8.74316C155.21 8.28288 155.433 7.88411 155.725 7.54688C156.016 7.20508 156.369 6.94076 156.784 6.75391C157.199 6.5625 157.664 6.4668 158.179 6.4668C158.698 6.4668 159.165 6.5625 159.58 6.75391C159.999 6.94076 160.355 7.20508 160.646 7.54688C160.943 7.88411 161.168 8.28288 161.323 8.74316C161.478 9.19889 161.556 9.69336 161.556 10.2266V10.3838C161.556 10.917 161.478 11.4115 161.323 11.8672C161.168 12.3229 160.943 12.7217 160.646 13.0635C160.355 13.4007 160.002 13.665 159.587 13.8564C159.177 14.0433 158.712 14.1367 158.192 14.1367C157.673 14.1367 157.206 14.0433 156.791 13.8564C156.376 13.665 156.021 13.4007 155.725 13.0635C155.433 12.7217 155.21 12.3229 155.055 11.8672C154.9 11.4115 154.822 10.917 154.822 10.3838ZM156.087 10.2266V10.3838C156.087 10.7529 156.13 11.1016 156.217 11.4297C156.303 11.7533 156.433 12.0404 156.606 12.291C156.784 12.5417 157.005 12.7399 157.27 12.8857C157.534 13.027 157.841 13.0977 158.192 13.0977C158.539 13.0977 158.842 13.027 159.102 12.8857C159.366 12.7399 159.585 12.5417 159.758 12.291C159.931 12.0404 160.061 11.7533 160.147 11.4297C160.239 11.1016 160.284 10.7529 160.284 10.3838V10.2266C160.284 9.86198 160.239 9.5179 160.147 9.19434C160.061 8.86621 159.929 8.57682 159.751 8.32617C159.578 8.07096 159.359 7.87044 159.095 7.72461C158.835 7.57878 158.53 7.50586 158.179 7.50586C157.832 7.50586 157.527 7.57878 157.263 7.72461C157.003 7.87044 156.784 8.07096 156.606 8.32617C156.433 8.57682 156.303 8.86621 156.217 9.19434C156.13 9.5179 156.087 9.86198 156.087 10.2266ZM166.102 13.0977C166.402 13.0977 166.68 13.0361 166.936 12.9131C167.191 12.79 167.4 12.6214 167.564 12.4072C167.729 12.1885 167.822 11.9401 167.845 11.6621H169.048C169.025 12.0996 168.877 12.5075 168.604 12.8857C168.335 13.2594 167.981 13.5625 167.544 13.7949C167.106 14.0228 166.626 14.1367 166.102 14.1367C165.546 14.1367 165.06 14.0387 164.646 13.8428C164.235 13.6468 163.894 13.3779 163.62 13.0361C163.351 12.6943 163.148 12.3024 163.012 11.8604C162.88 11.4137 162.813 10.9421 162.813 10.4453V10.1582C162.813 9.66146 162.88 9.19206 163.012 8.75C163.148 8.30339 163.351 7.90918 163.62 7.56738C163.894 7.22559 164.235 6.95671 164.646 6.76074C165.06 6.56478 165.546 6.4668 166.102 6.4668C166.68 6.4668 167.186 6.58529 167.619 6.82227C168.052 7.05469 168.392 7.3737 168.638 7.7793C168.888 8.18034 169.025 8.63607 169.048 9.14648H167.845C167.822 8.84115 167.735 8.56543 167.585 8.31934C167.439 8.07324 167.239 7.87728 166.983 7.73145C166.733 7.58105 166.439 7.50586 166.102 7.50586C165.714 7.50586 165.388 7.58333 165.124 7.73828C164.864 7.88867 164.657 8.09375 164.502 8.35352C164.352 8.60872 164.242 8.89355 164.174 9.20801C164.11 9.5179 164.078 9.83464 164.078 10.1582V10.4453C164.078 10.7689 164.11 11.0879 164.174 11.4023C164.238 11.7168 164.345 12.0016 164.495 12.2568C164.65 12.512 164.857 12.7171 165.117 12.8721C165.382 13.0225 165.71 13.0977 166.102 13.0977ZM171.844 6.60352V14H170.579V6.60352H171.844ZM176.697 6.60352L173.19 10.8418H171.42L171.229 9.73438H172.678L175.159 6.60352H176.697ZM175.337 14L172.616 10.6504L173.43 9.73438L176.943 14H175.337ZM177.559 10.3838V10.2266C177.559 9.69336 177.636 9.19889 177.791 8.74316C177.946 8.28288 178.169 7.88411 178.461 7.54688C178.753 7.20508 179.106 6.94076 179.521 6.75391C179.935 6.5625 180.4 6.4668 180.915 6.4668C181.435 6.4668 181.902 6.5625 182.316 6.75391C182.736 6.94076 183.091 7.20508 183.383 7.54688C183.679 7.88411 183.905 8.28288 184.06 8.74316C184.215 9.19889 184.292 9.69336 184.292 10.2266V10.3838C184.292 10.917 184.215 11.4115 184.06 11.8672C183.905 12.3229 183.679 12.7217 183.383 13.0635C183.091 13.4007 182.738 13.665 182.323 13.8564C181.913 14.0433 181.448 14.1367 180.929 14.1367C180.409 14.1367 179.942 14.0433 179.527 13.8564C179.113 13.665 178.757 13.4007 178.461 13.0635C178.169 12.7217 177.946 12.3229 177.791 11.8672C177.636 11.4115 177.559 10.917 177.559 10.3838ZM178.823 10.2266V10.3838C178.823 10.7529 178.867 11.1016 178.953 11.4297C179.04 11.7533 179.17 12.0404 179.343 12.291C179.521 12.5417 179.742 12.7399 180.006 12.8857C180.27 13.027 180.578 13.0977 180.929 13.0977C181.275 13.0977 181.578 13.027 181.838 12.8857C182.102 12.7399 182.321 12.5417 182.494 12.291C182.667 12.0404 182.797 11.7533 182.884 11.4297C182.975 11.1016 183.021 10.7529 183.021 10.3838V10.2266C183.021 9.86198 182.975 9.5179 182.884 9.19434C182.797 8.86621 182.665 8.57682 182.487 8.32617C182.314 8.07096 182.095 7.87044 181.831 7.72461C181.571 7.57878 181.266 7.50586 180.915 7.50586C180.569 7.50586 180.263 7.57878 179.999 7.72461C179.739 7.87044 179.521 8.07096 179.343 8.32617C179.17 8.57682 179.04 8.86621 178.953 9.19434C178.867 9.5179 178.823 9.86198 178.823 10.2266ZM189.351 10.7461H186.924L186.91 9.73438H188.893C189.285 9.73438 189.61 9.69564 189.87 9.61816C190.134 9.54069 190.333 9.42448 190.465 9.26953C190.597 9.11458 190.663 8.92318 190.663 8.69531C190.663 8.51758 190.624 8.36263 190.547 8.23047C190.474 8.09375 190.362 7.9821 190.212 7.89551C190.062 7.80436 189.875 7.73828 189.651 7.69727C189.433 7.65169 189.175 7.62891 188.879 7.62891H187.259V14H185.994V6.60352H188.879C189.348 6.60352 189.77 6.64453 190.144 6.72656C190.522 6.80859 190.843 6.93392 191.107 7.10254C191.376 7.2666 191.581 7.47624 191.723 7.73145C191.864 7.98665 191.935 8.28743 191.935 8.63379C191.935 8.8571 191.889 9.06901 191.798 9.26953C191.707 9.47005 191.572 9.64779 191.395 9.80273C191.217 9.95768 190.998 10.0853 190.738 10.1855C190.479 10.2812 190.18 10.3428 189.843 10.3701L189.351 10.7461ZM189.351 14H186.466L187.095 12.9746H189.351C189.701 12.9746 189.993 12.9313 190.226 12.8447C190.458 12.7536 190.631 12.626 190.745 12.4619C190.864 12.2933 190.923 12.0928 190.923 11.8604C190.923 11.6279 190.864 11.4297 190.745 11.2656C190.631 11.097 190.458 10.9694 190.226 10.8828C189.993 10.7917 189.701 10.7461 189.351 10.7461H187.43L187.443 9.73438H189.843L190.301 10.1172C190.706 10.1491 191.05 10.2493 191.333 10.418C191.616 10.5866 191.83 10.8008 191.976 11.0605C192.121 11.3158 192.194 11.5938 192.194 11.8945C192.194 12.2409 192.128 12.5462 191.996 12.8105C191.868 13.0749 191.682 13.2959 191.436 13.4736C191.189 13.6468 190.891 13.779 190.54 13.8701C190.189 13.9567 189.793 14 189.351 14ZM196.85 13.0977C197.15 13.0977 197.428 13.0361 197.684 12.9131C197.939 12.79 198.148 12.6214 198.312 12.4072C198.477 12.1885 198.57 11.9401 198.593 11.6621H199.796C199.773 12.0996 199.625 12.5075 199.352 12.8857C199.083 13.2594 198.729 13.5625 198.292 13.7949C197.854 14.0228 197.374 14.1367 196.85 14.1367C196.294 14.1367 195.808 14.0387 195.394 13.8428C194.983 13.6468 194.642 13.3779 194.368 13.0361C194.099 12.6943 193.896 12.3024 193.76 11.8604C193.628 11.4137 193.562 10.9421 193.562 10.4453V10.1582C193.562 9.66146 193.628 9.19206 193.76 8.75C193.896 8.30339 194.099 7.90918 194.368 7.56738C194.642 7.22559 194.983 6.95671 195.394 6.76074C195.808 6.56478 196.294 6.4668 196.85 6.4668C197.428 6.4668 197.934 6.58529 198.367 6.82227C198.8 7.05469 199.14 7.3737 199.386 7.7793C199.636 8.18034 199.773 8.63607 199.796 9.14648H198.593C198.57 8.84115 198.483 8.56543 198.333 8.31934C198.187 8.07324 197.987 7.87728 197.731 7.73145C197.481 7.58105 197.187 7.50586 196.85 7.50586C196.462 7.50586 196.136 7.58333 195.872 7.73828C195.612 7.88867 195.405 8.09375 195.25 8.35352C195.1 8.60872 194.99 8.89355 194.922 9.20801C194.858 9.5179 194.826 9.83464 194.826 10.1582V10.4453C194.826 10.7689 194.858 11.0879 194.922 11.4023C194.986 11.7168 195.093 12.0016 195.243 12.2568C195.398 12.512 195.605 12.7171 195.865 12.8721C196.13 13.0225 196.458 13.0977 196.85 13.0977ZM202.592 6.60352V14H201.327V6.60352H202.592ZM207.445 6.60352L203.938 10.8418H202.168L201.977 9.73438H203.426L205.907 6.60352H207.445ZM206.085 14L203.364 10.6504L204.178 9.73438L207.691 14H206.085ZM213.153 12.7354V8.92773C213.153 8.63607 213.094 8.38314 212.976 8.16895C212.862 7.9502 212.688 7.78158 212.456 7.66309C212.224 7.5446 211.937 7.48535 211.595 7.48535C211.276 7.48535 210.995 7.54004 210.754 7.64941C210.517 7.75879 210.33 7.90234 210.193 8.08008C210.061 8.25781 209.995 8.44922 209.995 8.6543H208.73C208.73 8.38997 208.799 8.12793 208.936 7.86816C209.072 7.6084 209.268 7.3737 209.523 7.16406C209.783 6.94987 210.093 6.78125 210.453 6.6582C210.818 6.5306 211.223 6.4668 211.67 6.4668C212.208 6.4668 212.682 6.55794 213.092 6.74023C213.507 6.92253 213.83 7.19824 214.062 7.56738C214.299 7.93197 214.418 8.38997 214.418 8.94141V12.3867C214.418 12.6328 214.438 12.8949 214.479 13.1729C214.525 13.4508 214.591 13.6901 214.678 13.8906V14H213.358C213.295 13.8542 213.244 13.6605 213.208 13.4189C213.172 13.1729 213.153 12.945 213.153 12.7354ZM213.372 9.51562L213.386 10.4043H212.107C211.747 10.4043 211.426 10.4339 211.144 10.4932C210.861 10.5479 210.624 10.6322 210.433 10.7461C210.241 10.86 210.095 11.0036 209.995 11.1768C209.895 11.3454 209.845 11.5436 209.845 11.7715C209.845 12.0039 209.897 12.2158 210.002 12.4072C210.107 12.5986 210.264 12.7513 210.474 12.8652C210.688 12.9746 210.95 13.0293 211.26 13.0293C211.647 13.0293 211.989 12.9473 212.285 12.7832C212.581 12.6191 212.816 12.4186 212.989 12.1816C213.167 11.9447 213.263 11.7145 213.276 11.4912L213.816 12.0996C213.785 12.291 213.698 12.5029 213.557 12.7354C213.415 12.9678 213.226 13.1911 212.989 13.4053C212.757 13.6149 212.479 13.7904 212.155 13.9316C211.836 14.0684 211.476 14.1367 211.075 14.1367C210.574 14.1367 210.134 14.0387 209.756 13.8428C209.382 13.6468 209.09 13.3848 208.881 13.0566C208.676 12.724 208.573 12.3525 208.573 11.9424C208.573 11.5459 208.651 11.1973 208.806 10.8965C208.961 10.5911 209.184 10.3382 209.476 10.1377C209.767 9.93262 210.118 9.77767 210.528 9.67285C210.938 9.56803 211.396 9.51562 211.902 9.51562H213.372ZM217.904 10.4727H219.271L217.132 14H215.765L217.904 10.4727ZM218.964 6.60352H222.054V14H220.789V7.62891H218.964C218.604 7.62891 218.31 7.69043 218.082 7.81348C217.854 7.93197 217.688 8.08691 217.583 8.27832C217.478 8.46973 217.426 8.66797 217.426 8.87305C217.426 9.07357 217.474 9.26725 217.569 9.4541C217.665 9.63639 217.815 9.78678 218.021 9.90527C218.226 10.0238 218.49 10.083 218.813 10.083H221.131V11.1221H218.813C218.39 11.1221 218.014 11.0651 217.686 10.9512C217.357 10.8372 217.079 10.68 216.852 10.4795C216.624 10.2744 216.451 10.0352 216.332 9.76172C216.214 9.48372 216.154 9.18294 216.154 8.85938C216.154 8.53581 216.216 8.2373 216.339 7.96387C216.466 7.69043 216.649 7.45117 216.886 7.24609C217.127 7.04102 217.421 6.88379 217.768 6.77441C218.118 6.66048 218.517 6.60352 218.964 6.60352ZM227.229 10.3838V10.2266C227.229 9.69336 227.306 9.19889 227.461 8.74316C227.616 8.28288 227.839 7.88411 228.131 7.54688C228.423 7.20508 228.776 6.94076 229.19 6.75391C229.605 6.5625 230.07 6.4668 230.585 6.4668C231.104 6.4668 231.572 6.5625 231.986 6.75391C232.406 6.94076 232.761 7.20508 233.053 7.54688C233.349 7.88411 233.575 8.28288 233.729 8.74316C233.884 9.19889 233.962 9.69336 233.962 10.2266V10.3838C233.962 10.917 233.884 11.4115 233.729 11.8672C233.575 12.3229 233.349 12.7217 233.053 13.0635C232.761 13.4007 232.408 13.665 231.993 13.8564C231.583 14.0433 231.118 14.1367 230.599 14.1367C230.079 14.1367 229.612 14.0433 229.197 13.8564C228.783 13.665 228.427 13.4007 228.131 13.0635C227.839 12.7217 227.616 12.3229 227.461 11.8672C227.306 11.4115 227.229 10.917 227.229 10.3838ZM228.493 10.2266V10.3838C228.493 10.7529 228.536 11.1016 228.623 11.4297C228.71 11.7533 228.84 12.0404 229.013 12.291C229.19 12.5417 229.411 12.7399 229.676 12.8857C229.94 13.027 230.248 13.0977 230.599 13.0977C230.945 13.0977 231.248 13.027 231.508 12.8857C231.772 12.7399 231.991 12.5417 232.164 12.291C232.337 12.0404 232.467 11.7533 232.554 11.4297C232.645 11.1016 232.69 10.7529 232.69 10.3838V10.2266C232.69 9.86198 232.645 9.5179 232.554 9.19434C232.467 8.86621 232.335 8.57682 232.157 8.32617C231.984 8.07096 231.765 7.87044 231.501 7.72461C231.241 7.57878 230.936 7.50586 230.585 7.50586C230.239 7.50586 229.933 7.57878 229.669 7.72461C229.409 7.87044 229.19 8.07096 229.013 8.32617C228.84 8.57682 228.71 8.86621 228.623 9.19434C228.536 9.5179 228.493 9.86198 228.493 10.2266ZM240.292 3.38379H241.331C241.331 3.8304 241.263 4.18587 241.126 4.4502C240.989 4.70996 240.802 4.91048 240.565 5.05176C240.333 5.19303 240.069 5.30013 239.772 5.37305C239.481 5.44596 239.178 5.5166 238.863 5.58496C238.471 5.66699 238.107 5.79688 237.77 5.97461C237.437 6.14779 237.15 6.39388 236.908 6.71289C236.671 7.0319 236.496 7.44661 236.382 7.95703C236.272 8.46745 236.243 9.09863 236.293 9.85059V10.4795H235.254V9.85059C235.254 9.00749 235.334 8.27148 235.493 7.64258C235.657 7.01367 235.887 6.48275 236.184 6.0498C236.48 5.61686 236.831 5.27279 237.236 5.01758C237.646 4.76237 238.098 4.58691 238.59 4.49121C238.945 4.42285 239.251 4.34993 239.506 4.27246C239.761 4.19043 239.955 4.08105 240.087 3.94434C240.224 3.80762 240.292 3.62077 240.292 3.38379ZM238.795 7.02734C239.278 7.02734 239.709 7.11165 240.087 7.28027C240.465 7.44889 240.786 7.68359 241.051 7.98438C241.315 8.28516 241.516 8.64062 241.652 9.05078C241.794 9.45638 241.864 9.89844 241.864 10.377V10.5273C241.864 11.0423 241.789 11.5208 241.639 11.9629C241.493 12.4004 241.276 12.7832 240.989 13.1113C240.707 13.4349 240.36 13.6878 239.95 13.8701C239.545 14.0524 239.082 14.1436 238.562 14.1436C238.043 14.1436 237.578 14.0524 237.168 13.8701C236.762 13.6878 236.416 13.4349 236.129 13.1113C235.842 12.7832 235.623 12.4004 235.473 11.9629C235.327 11.5208 235.254 11.0423 235.254 10.5273V10.377C235.254 10.263 235.274 10.1514 235.315 10.042C235.356 9.93262 235.407 9.82096 235.466 9.70703C235.53 9.5931 235.587 9.47233 235.637 9.34473C235.805 8.93457 236.035 8.55404 236.327 8.20312C236.623 7.85221 236.977 7.56966 237.387 7.35547C237.801 7.13672 238.271 7.02734 238.795 7.02734ZM238.549 8.05957C238.084 8.05957 237.701 8.16667 237.4 8.38086C237.104 8.59505 236.883 8.87988 236.737 9.23535C236.591 9.58626 236.519 9.9668 236.519 10.377V10.5273C236.519 10.8737 236.56 11.2018 236.642 11.5117C236.724 11.8216 236.847 12.0973 237.011 12.3389C237.179 12.5758 237.391 12.7627 237.646 12.8994C237.906 13.0361 238.212 13.1045 238.562 13.1045C238.913 13.1045 239.216 13.0361 239.472 12.8994C239.727 12.7627 239.937 12.5758 240.101 12.3389C240.265 12.0973 240.388 11.8216 240.47 11.5117C240.552 11.2018 240.593 10.8737 240.593 10.5273V10.377C240.593 10.0671 240.552 9.77311 240.47 9.49512C240.388 9.21712 240.262 8.97103 240.094 8.75684C239.93 8.54264 239.718 8.37402 239.458 8.25098C239.203 8.12337 238.9 8.05957 238.549 8.05957ZM248.242 6.60352V7.64941H244.667V6.60352H248.242ZM249.356 6.60352V14H248.092V6.60352H249.356ZM244.359 6.60352H245.631L245.439 10.1719C245.408 10.7233 245.355 11.2109 245.282 11.6348C245.214 12.054 245.118 12.4141 244.995 12.7148C244.877 13.0156 244.726 13.2617 244.544 13.4531C244.366 13.64 244.152 13.779 243.901 13.8701C243.651 13.9567 243.361 14 243.033 14H242.637V12.8857L242.91 12.8652C243.106 12.8516 243.272 12.806 243.409 12.7285C243.55 12.651 243.669 12.5371 243.765 12.3867C243.86 12.2318 243.938 12.0335 243.997 11.792C244.061 11.5505 244.109 11.2633 244.141 10.9307C244.177 10.598 244.204 10.2106 244.223 9.76855L244.359 6.60352ZM255.755 12.7354V8.92773C255.755 8.63607 255.696 8.38314 255.577 8.16895C255.463 7.9502 255.29 7.78158 255.058 7.66309C254.825 7.5446 254.538 7.48535 254.196 7.48535C253.877 7.48535 253.597 7.54004 253.355 7.64941C253.118 7.75879 252.932 7.90234 252.795 8.08008C252.663 8.25781 252.597 8.44922 252.597 8.6543H251.332C251.332 8.38997 251.4 8.12793 251.537 7.86816C251.674 7.6084 251.87 7.3737 252.125 7.16406C252.385 6.94987 252.695 6.78125 253.055 6.6582C253.419 6.5306 253.825 6.4668 254.271 6.4668C254.809 6.4668 255.283 6.55794 255.693 6.74023C256.108 6.92253 256.432 7.19824 256.664 7.56738C256.901 7.93197 257.02 8.38997 257.02 8.94141V12.3867C257.02 12.6328 257.04 12.8949 257.081 13.1729C257.127 13.4508 257.193 13.6901 257.279 13.8906V14H255.96C255.896 13.8542 255.846 13.6605 255.81 13.4189C255.773 13.1729 255.755 12.945 255.755 12.7354ZM255.974 9.51562L255.987 10.4043H254.709C254.349 10.4043 254.028 10.4339 253.745 10.4932C253.463 10.5479 253.226 10.6322 253.034 10.7461C252.843 10.86 252.697 11.0036 252.597 11.1768C252.496 11.3454 252.446 11.5436 252.446 11.7715C252.446 12.0039 252.499 12.2158 252.604 12.4072C252.708 12.5986 252.866 12.7513 253.075 12.8652C253.289 12.9746 253.551 13.0293 253.861 13.0293C254.249 13.0293 254.59 12.9473 254.887 12.7832C255.183 12.6191 255.418 12.4186 255.591 12.1816C255.769 11.9447 255.864 11.7145 255.878 11.4912L256.418 12.0996C256.386 12.291 256.299 12.5029 256.158 12.7354C256.017 12.9678 255.828 13.1911 255.591 13.4053C255.358 13.6149 255.08 13.7904 254.757 13.9316C254.438 14.0684 254.078 14.1367 253.677 14.1367C253.175 14.1367 252.736 14.0387 252.357 13.8428C251.984 13.6468 251.692 13.3848 251.482 13.0566C251.277 12.724 251.175 12.3525 251.175 11.9424C251.175 11.5459 251.252 11.1973 251.407 10.8965C251.562 10.5911 251.785 10.3382 252.077 10.1377C252.369 9.93262 252.72 9.77767 253.13 9.67285C253.54 9.56803 253.998 9.51562 254.504 9.51562H255.974ZM261.969 13.0977C262.27 13.0977 262.548 13.0361 262.803 12.9131C263.058 12.79 263.268 12.6214 263.432 12.4072C263.596 12.1885 263.689 11.9401 263.712 11.6621H264.915C264.892 12.0996 264.744 12.5075 264.471 12.8857C264.202 13.2594 263.849 13.5625 263.411 13.7949C262.974 14.0228 262.493 14.1367 261.969 14.1367C261.413 14.1367 260.927 14.0387 260.513 13.8428C260.103 13.6468 259.761 13.3779 259.487 13.0361C259.218 12.6943 259.016 12.3024 258.879 11.8604C258.747 11.4137 258.681 10.9421 258.681 10.4453V10.1582C258.681 9.66146 258.747 9.19206 258.879 8.75C259.016 8.30339 259.218 7.90918 259.487 7.56738C259.761 7.22559 260.103 6.95671 260.513 6.76074C260.927 6.56478 261.413 6.4668 261.969 6.4668C262.548 6.4668 263.053 6.58529 263.486 6.82227C263.919 7.05469 264.259 7.3737 264.505 7.7793C264.756 8.18034 264.892 8.63607 264.915 9.14648H263.712C263.689 8.84115 263.603 8.56543 263.452 8.31934C263.306 8.07324 263.106 7.87728 262.851 7.73145C262.6 7.58105 262.306 7.50586 261.969 7.50586C261.581 7.50586 261.256 7.58333 260.991 7.73828C260.731 7.88867 260.524 8.09375 260.369 8.35352C260.219 8.60872 260.109 8.89355 260.041 9.20801C259.977 9.5179 259.945 9.83464 259.945 10.1582V10.4453C259.945 10.7689 259.977 11.0879 260.041 11.4023C260.105 11.7168 260.212 12.0016 260.362 12.2568C260.517 12.512 260.725 12.7171 260.984 12.8721C261.249 13.0225 261.577 13.0977 261.969 13.0977ZM269.352 6.60352V14H268.08V6.60352H269.352ZM271.833 6.60352V7.62891H265.646V6.60352H271.833ZM274.116 9.14648H276.338C276.935 9.14648 277.438 9.2513 277.849 9.46094C278.259 9.66602 278.569 9.95085 278.778 10.3154C278.993 10.6755 279.1 11.0856 279.1 11.5459C279.1 11.8877 279.04 12.209 278.922 12.5098C278.803 12.806 278.626 13.0658 278.389 13.2891C278.156 13.5124 277.867 13.6878 277.521 13.8154C277.179 13.9385 276.785 14 276.338 14H273.193V6.60352H274.458V12.9609H276.338C276.702 12.9609 276.994 12.8949 277.213 12.7627C277.432 12.6305 277.589 12.4596 277.685 12.25C277.78 12.0404 277.828 11.8216 277.828 11.5938C277.828 11.3704 277.78 11.1517 277.685 10.9375C277.589 10.7233 277.432 10.5456 277.213 10.4043C276.994 10.2585 276.702 10.1855 276.338 10.1855H274.116V9.14648Z" fill="#9458F5"/>
<path d="M297.267 6L291.633 12.9333L286 6" stroke="#9458F5" stroke-linecap="round" stroke-linejoin="round"/>
<path d="M4.70312 8.34473H2.18066L2.16699 7.28516H4.45703C4.83529 7.28516 5.16569 7.22135 5.44824 7.09375C5.73079 6.96615 5.94954 6.78385 6.10449 6.54688C6.264 6.30534 6.34375 6.01823 6.34375 5.68555C6.34375 5.32096 6.27311 5.02474 6.13184 4.79688C5.99512 4.56445 5.7832 4.39583 5.49609 4.29102C5.21354 4.18164 4.85352 4.12695 4.41602 4.12695H2.47461V13H1.15527V3.04688H4.41602C4.92643 3.04688 5.38216 3.09928 5.7832 3.2041C6.18424 3.30436 6.52376 3.46387 6.80176 3.68262C7.08431 3.89681 7.2985 4.17025 7.44434 4.50293C7.59017 4.83561 7.66309 5.23438 7.66309 5.69922C7.66309 6.10938 7.55827 6.48079 7.34863 6.81348C7.139 7.1416 6.84733 7.41048 6.47363 7.62012C6.10449 7.82975 5.67155 7.96419 5.1748 8.02344L4.70312 8.34473ZM4.6416 13H1.66113L2.40625 11.9268H4.6416C5.06087 11.9268 5.41634 11.8538 5.70801 11.708C6.00423 11.5622 6.22982 11.3571 6.38477 11.0928C6.53971 10.8239 6.61719 10.5072 6.61719 10.1426C6.61719 9.77344 6.55111 9.45443 6.41895 9.18555C6.28678 8.91667 6.07943 8.70931 5.79688 8.56348C5.51432 8.41764 5.14974 8.34473 4.70312 8.34473H2.82324L2.83691 7.28516H5.40723L5.6875 7.66797C6.16602 7.70898 6.57161 7.8457 6.9043 8.07812C7.23698 8.30599 7.48991 8.59766 7.66309 8.95312C7.84082 9.30859 7.92969 9.70052 7.92969 10.1289C7.92969 10.7487 7.79297 11.2728 7.51953 11.7012C7.25065 12.125 6.87012 12.4486 6.37793 12.6719C5.88574 12.8906 5.30697 13 4.6416 13ZM14.0479 11.7354V7.92773C14.0479 7.63607 13.9886 7.38314 13.8701 7.16895C13.7562 6.9502 13.583 6.78158 13.3506 6.66309C13.1182 6.5446 12.8311 6.48535 12.4893 6.48535C12.1702 6.48535 11.89 6.54004 11.6484 6.64941C11.4115 6.75879 11.2246 6.90234 11.0879 7.08008C10.9557 7.25781 10.8896 7.44922 10.8896 7.6543H9.625C9.625 7.38997 9.69336 7.12793 9.83008 6.86816C9.9668 6.6084 10.1628 6.3737 10.418 6.16406C10.6777 5.94987 10.9876 5.78125 11.3477 5.6582C11.7122 5.5306 12.1178 5.4668 12.5645 5.4668C13.1022 5.4668 13.5762 5.55794 13.9863 5.74023C14.401 5.92253 14.7246 6.19824 14.957 6.56738C15.194 6.93197 15.3125 7.38997 15.3125 7.94141V11.3867C15.3125 11.6328 15.333 11.8949 15.374 12.1729C15.4196 12.4508 15.4857 12.6901 15.5723 12.8906V13H14.2529C14.1891 12.8542 14.139 12.6605 14.1025 12.4189C14.0661 12.1729 14.0479 11.945 14.0479 11.7354ZM14.2666 8.51562L14.2803 9.4043H13.002C12.6419 9.4043 12.3206 9.43392 12.0381 9.49316C11.7555 9.54785 11.5186 9.63216 11.3271 9.74609C11.1357 9.86003 10.9899 10.0036 10.8896 10.1768C10.7894 10.3454 10.7393 10.5436 10.7393 10.7715C10.7393 11.0039 10.7917 11.2158 10.8965 11.4072C11.0013 11.5986 11.1585 11.7513 11.3682 11.8652C11.5824 11.9746 11.8444 12.0293 12.1543 12.0293C12.5417 12.0293 12.8835 11.9473 13.1797 11.7832C13.4759 11.6191 13.7106 11.4186 13.8838 11.1816C14.0615 10.9447 14.1572 10.7145 14.1709 10.4912L14.7109 11.0996C14.679 11.291 14.5924 11.5029 14.4512 11.7354C14.3099 11.9678 14.1208 12.1911 13.8838 12.4053C13.6514 12.6149 13.3734 12.7904 13.0498 12.9316C12.7308 13.0684 12.3708 13.1367 11.9697 13.1367C11.4684 13.1367 11.0286 13.0387 10.6504 12.8428C10.2767 12.6468 9.98503 12.3848 9.77539 12.0566C9.57031 11.724 9.46777 11.3525 9.46777 10.9424C9.46777 10.5459 9.54525 10.1973 9.7002 9.89648C9.85514 9.59115 10.0785 9.33822 10.3701 9.1377C10.6618 8.93262 11.0127 8.77767 11.4229 8.67285C11.833 8.56803 12.291 8.51562 12.7969 8.51562H14.2666ZM17.4111 5.60352H18.6758V11.9609H21.3828V5.60352H22.6543V11.9609H25.3545V5.60352H26.6191V13H17.4111V5.60352ZM33.373 7.02539V15.8438H32.1016V5.60352H33.2637L33.373 7.02539ZM38.3564 9.24023V9.38379C38.3564 9.92155 38.2926 10.4206 38.165 10.8809C38.0374 11.3366 37.8506 11.7331 37.6045 12.0703C37.363 12.4076 37.0645 12.6696 36.709 12.8564C36.3535 13.0433 35.9456 13.1367 35.4854 13.1367C35.016 13.1367 34.6012 13.0592 34.2412 12.9043C33.8812 12.7493 33.5758 12.5238 33.3252 12.2275C33.0745 11.9313 32.874 11.5758 32.7236 11.1611C32.5778 10.7464 32.4775 10.2793 32.4229 9.75977V8.99414C32.4775 8.44727 32.5801 7.95736 32.7305 7.52441C32.8809 7.09147 33.0791 6.72233 33.3252 6.41699C33.5758 6.1071 33.8789 5.8724 34.2344 5.71289C34.5898 5.54883 35 5.4668 35.4648 5.4668C35.9297 5.4668 36.3421 5.55794 36.7021 5.74023C37.0622 5.91797 37.3652 6.17318 37.6113 6.50586C37.8574 6.83854 38.042 7.2373 38.165 7.70215C38.2926 8.16243 38.3564 8.67513 38.3564 9.24023ZM37.085 9.38379V9.24023C37.085 8.87109 37.0462 8.52474 36.9688 8.20117C36.8913 7.87305 36.7705 7.58594 36.6064 7.33984C36.4469 7.08919 36.2419 6.89323 35.9912 6.75195C35.7406 6.60612 35.4421 6.5332 35.0957 6.5332C34.7767 6.5332 34.4987 6.58789 34.2617 6.69727C34.0293 6.80664 33.8311 6.95475 33.667 7.1416C33.5029 7.32389 33.3685 7.53353 33.2637 7.77051C33.1634 8.00293 33.0882 8.24447 33.0381 8.49512V10.2656C33.1292 10.5846 33.2568 10.8854 33.4209 11.168C33.585 11.446 33.8037 11.6715 34.0771 11.8447C34.3506 12.0133 34.6947 12.0977 35.1094 12.0977C35.4512 12.0977 35.7451 12.027 35.9912 11.8857C36.2419 11.7399 36.4469 11.5417 36.6064 11.291C36.7705 11.0404 36.8913 10.7533 36.9688 10.4297C37.0462 10.1016 37.085 9.75293 37.085 9.38379ZM43.0391 13.1367C42.5241 13.1367 42.057 13.0501 41.6377 12.877C41.223 12.6992 40.8652 12.4508 40.5645 12.1318C40.2682 11.8128 40.0404 11.4346 39.8809 10.9971C39.7214 10.5596 39.6416 10.0811 39.6416 9.56152V9.27441C39.6416 8.67285 39.7305 8.13737 39.9082 7.66797C40.0859 7.19401 40.3275 6.79297 40.6328 6.46484C40.9382 6.13672 41.2845 5.88835 41.6719 5.71973C42.0592 5.55111 42.4603 5.4668 42.875 5.4668C43.4036 5.4668 43.8594 5.55794 44.2422 5.74023C44.6296 5.92253 44.9463 6.17773 45.1924 6.50586C45.4385 6.82943 45.6208 7.21224 45.7393 7.6543C45.8577 8.0918 45.917 8.57031 45.917 9.08984V9.65723H40.3936V8.625H44.6523V8.5293C44.6341 8.20117 44.5658 7.88216 44.4473 7.57227C44.3333 7.26237 44.151 7.00716 43.9004 6.80664C43.6497 6.60612 43.3079 6.50586 42.875 6.50586C42.5879 6.50586 42.3236 6.56738 42.082 6.69043C41.8405 6.80892 41.6331 6.98665 41.46 7.22363C41.2868 7.46061 41.1523 7.75 41.0566 8.0918C40.9609 8.43359 40.9131 8.8278 40.9131 9.27441V9.56152C40.9131 9.91243 40.9609 10.2428 41.0566 10.5527C41.1569 10.8581 41.3005 11.127 41.4873 11.3594C41.6787 11.5918 41.9089 11.7741 42.1777 11.9062C42.4512 12.0384 42.7611 12.1045 43.1074 12.1045C43.554 12.1045 43.9323 12.0133 44.2422 11.8311C44.5521 11.6488 44.8232 11.4049 45.0557 11.0996L45.8213 11.708C45.6618 11.9495 45.459 12.1797 45.2129 12.3984C44.9668 12.6172 44.6637 12.7949 44.3037 12.9316C43.9482 13.0684 43.5267 13.1367 43.0391 13.1367ZM52.1719 5.60352V6.64941H48.7539V13H47.4893V5.60352H52.1719ZM54.6396 10.9971L58.0508 5.60352H59.3223V13H58.0508V7.60645L54.6396 13H53.3818V5.60352H54.6396V10.9971ZM61.0176 9.38379V9.22656C61.0176 8.69336 61.0951 8.19889 61.25 7.74316C61.4049 7.28288 61.6283 6.88411 61.9199 6.54688C62.2116 6.20508 62.5648 5.94076 62.9795 5.75391C63.3942 5.5625 63.859 5.4668 64.374 5.4668C64.8936 5.4668 65.3607 5.5625 65.7754 5.75391C66.1947 5.94076 66.5501 6.20508 66.8418 6.54688C67.138 6.88411 67.3636 7.28288 67.5186 7.74316C67.6735 8.19889 67.751 8.69336 67.751 9.22656V9.38379C67.751 9.91699 67.6735 10.4115 67.5186 10.8672C67.3636 11.3229 67.138 11.7217 66.8418 12.0635C66.5501 12.4007 66.1969 12.665 65.7822 12.8564C65.3721 13.0433 64.9072 13.1367 64.3877 13.1367C63.8682 13.1367 63.401 13.0433 62.9863 12.8564C62.5716 12.665 62.2161 12.4007 61.9199 12.0635C61.6283 11.7217 61.4049 11.3229 61.25 10.8672C61.0951 10.4115 61.0176 9.91699 61.0176 9.38379ZM62.2822 9.22656V9.38379C62.2822 9.75293 62.3255 10.1016 62.4121 10.4297C62.4987 10.7533 62.6286 11.0404 62.8018 11.291C62.9795 11.5417 63.2005 11.7399 63.4648 11.8857C63.7292 12.027 64.0368 12.0977 64.3877 12.0977C64.734 12.0977 65.0371 12.027 65.2969 11.8857C65.5612 11.7399 65.7799 11.5417 65.9531 11.291C66.1263 11.0404 66.2562 10.7533 66.3428 10.4297C66.4339 10.1016 66.4795 9.75293 66.4795 9.38379V9.22656C66.4795 8.86198 66.4339 8.5179 66.3428 8.19434C66.2562 7.86621 66.124 7.57682 65.9463 7.32617C65.7731 7.07096 65.5544 6.87044 65.29 6.72461C65.0303 6.57878 64.7249 6.50586 64.374 6.50586C64.0277 6.50586 63.7223 6.57878 63.458 6.72461C63.1982 6.87044 62.9795 7.07096 62.8018 7.32617C62.6286 7.57682 62.4987 7.86621 62.4121 8.19434C62.3255 8.5179 62.2822 8.86198 62.2822 9.22656ZM74.3545 8.80957V9.83496H70.4443V8.80957H74.3545ZM70.7109 5.60352V13H69.4463V5.60352H70.7109ZM75.3799 5.60352V13H74.1084V5.60352H75.3799ZM77.3623 12.3301C77.3623 12.1159 77.4284 11.9359 77.5605 11.79C77.6973 11.6396 77.8932 11.5645 78.1484 11.5645C78.4036 11.5645 78.5973 11.6396 78.7295 11.79C78.8662 11.9359 78.9346 12.1159 78.9346 12.3301C78.9346 12.5397 78.8662 12.7174 78.7295 12.8633C78.5973 13.0091 78.4036 13.082 78.1484 13.082C77.8932 13.082 77.6973 13.0091 77.5605 12.8633C77.4284 12.7174 77.3623 12.5397 77.3623 12.3301ZM77.3691 6.29395C77.3691 6.07975 77.4352 5.89974 77.5674 5.75391C77.7041 5.60352 77.9001 5.52832 78.1553 5.52832C78.4105 5.52832 78.6042 5.60352 78.7363 5.75391C78.873 5.89974 78.9414 6.07975 78.9414 6.29395C78.9414 6.50358 78.873 6.68132 78.7363 6.82715C78.6042 6.97298 78.4105 7.0459 78.1553 7.0459C77.9001 7.0459 77.7041 6.97298 77.5674 6.82715C77.4352 6.68132 77.3691 6.50358 77.3691 6.29395Z" fill="#333232"/>
</svg>
